<svg width="20" height="21" viewBox="0 0 20 21" fill="none" xmlns="http://www.w3.org/2000/svg">
<path d="M19 4.9722H14V3.3022C13.9765 2.66202 13.7002 2.05726 13.2316 1.6205C12.7629 1.18373 12.1402 0.950597 11.5 0.972204H8.5C7.85976 0.950597 7.23706 1.18373 6.76843 1.6205C6.2998 2.05726 6.02346 2.66202 6 3.3022V4.9722H1C0.734784 4.9722 0.48043 5.07756 0.292893 5.2651C0.105357 5.45263 0 5.70699 0 5.9722C0 6.23742 0.105357 6.49177 0.292893 6.67931C0.48043 6.86685 0.734784 6.9722 1 6.9722H2V17.9722C2 18.7679 2.31607 19.5309 2.87868 20.0935C3.44129 20.6561 4.20435 20.9722 5 20.9722H15C15.7957 20.9722 16.5587 20.6561 17.1213 20.0935C17.6839 19.5309 18 18.7679 18 17.9722V6.9722H19C19.2652 6.9722 19.5196 6.86685 19.7071 6.67931C19.8946 6.49177 20 6.23742 20 5.9722C20 5.70699 19.8946 5.45263 19.7071 5.2651C19.5196 5.07756 19.2652 4.9722 19 4.9722ZM8 14.9722C8 15.2374 7.89464 15.4918 7.70711 15.6793C7.51957 15.8668 7.26522 15.9722 7 15.9722C6.73479 15.9722 6.48043 15.8668 6.29289 15.6793C6.10536 15.4918 6 15.2374 6 14.9722V10.9722C6 10.707 6.10536 10.4526 6.29289 10.2651C6.48043 10.0776 6.73479 9.9722 7 9.9722C7.26522 9.9722 7.51957 10.0776 7.70711 10.2651C7.89464 10.4526 8 10.707 8 10.9722V14.9722ZM8 3.3022C8 3.1422 8.21 2.9722 8.5 2.9722H11.5C11.79 2.9722 12 3.1422 12 3.3022V4.9722H8V3.3022ZM14 14.9722C14 15.2374 13.8946 15.4918 13.7071 15.6793C13.5196 15.8668 13.2652 15.9722 13 15.9722C12.7348 15.9722 12.4804 15.8668 12.2929 15.6793C12.1054 15.4918 12 15.2374 12 14.9722V10.9722C12 10.707 12.1054 10.4526 12.2929 10.2651C12.4804 10.0776 12.7348 9.9722 13 9.9722C13.2652 9.9722 13.5196 10.0776 13.7071 10.2651C13.8946 10.4526 14 10.707 14 10.9722V14.9722Z" fill="white"/>
</svg>
